<svg xmlns="http://www.w3.org/2000/svg" xmlns:xlink="http://www.w3.org/1999/xlink" width="285.104" height="58.677" viewBox="0 0 285.104 58.677"><defs><clipPath id="b"><rect width="285.104" height="58.677"/></clipPath></defs><g id="a" clip-path="url(#b)"><path d="M6.714,36.458h0L0,29.746,11.517,18.23,0,6.713,6.712,0,18.226,11.514,29.74,0l6.713,6.713L30.7,12.47l0,0-5.757,5.757L27.608,20.9l8.845,8.846L29.74,36.454,18.23,24.943,6.715,36.458ZM18.143,14.081a4.364,4.364,0,0,0-3.243,1.3,4.607,4.607,0,0,0-1.271,3.31,4.607,4.607,0,0,0,1.271,3.31,4.365,4.365,0,0,0,3.243,1.3,4.366,4.366,0,0,0,3.243-1.3,4.506,4.506,0,0,0,1.3-3.31,4.506,4.506,0,0,0-1.3-3.31A4.365,4.365,0,0,0,18.143,14.081Z" transform="translate(38.705 8.89)" fill="#0062ff"/><path d="M28.916,7.975a23.829,23.829,0,0,0,.353-3.74,18.548,18.548,0,0,0-5.08-13.265,16.628,16.628,0,0,0-12.771-5.363A17.807,17.807,0,0,0-1.989-9.029,18.254,18.254,0,0,0-7.21,4.236,18.08,18.08,0,0,0-1.918,17.572C1.61,21.1,6.267,22.864,12.123,22.864c6.774,0,11.924-2.54,15.382-7.55L20.166,11.08c-1.764,2.328-4.445,3.528-7.9,3.528-5.433,0-8.749-2.187-9.949-6.633ZM2.174.919C3.233-3.6,6.549-6.207,11.417-6.207A8.527,8.527,0,0,1,20.166.919Z" transform="translate(7.21 23.28)" fill="#0062ff"/><path d="M-15.349-8.042h-7.973V-17.92l-9.1,2.752V15.384c0,9.667,4.586,13.265,17.075,11.854V18.983c-5.221.282-7.973.212-7.973-3.6V.708h7.973Zm16.087,0h-9.1v35.28h9.1V10.374c0-3.387,1.058-5.786,3.246-7.268a10.6,10.6,0,0,1,7.479-1.693V-8.747c-4.8,0-9.031,2.258-10.725,6.774ZM42.226-3.879c-2.752-3.457-6.562-5.151-11.5-5.151A16.094,16.094,0,0,0,18.589-3.6,18.745,18.745,0,0,0,13.58,9.6a18.917,18.917,0,0,0,5.01,13.265,16.024,16.024,0,0,0,12.136,5.363c4.939,0,8.749-1.693,11.5-5.151v4.163h9.1V-8.042h-9.1ZM25.434,16.8a9.959,9.959,0,0,1-2.752-7.2,9.68,9.68,0,0,1,2.752-7.127A9.253,9.253,0,0,1,32.419-.351,9.253,9.253,0,0,1,39.4,2.472,9.462,9.462,0,0,1,42.226,9.6,9.73,9.73,0,0,1,39.4,16.8a9.464,9.464,0,0,1-6.985,2.752A9.464,9.464,0,0,1,25.434,16.8Z" transform="translate(112.523 17.92)" fill="#0062ff"/><path d="M24.5-35.98c-4.9,0-8.68,1.68-11.34,5.11V-35H4.13V14h9.03V-4.13C15.82-.7,19.6.98,24.5.98A15.792,15.792,0,0,0,36.54-4.34,18.517,18.517,0,0,0,41.58-17.5a18.35,18.35,0,0,0-5.04-13.09A15.86,15.86,0,0,0,24.5-35.98ZM15.89-10.36a9.88,9.88,0,0,1-2.73-7.14,9.6,9.6,0,0,1,2.73-7.07,9.18,9.18,0,0,1,6.93-2.8,9.18,9.18,0,0,1,6.93,2.8,9.387,9.387,0,0,1,2.8,7.07,9.653,9.653,0,0,1-2.8,7.14,9.389,9.389,0,0,1-6.93,2.73A9.389,9.389,0,0,1,15.89-10.36ZM77.77-4.34A17.957,17.957,0,0,0,83.16-17.5a17.8,17.8,0,0,0-5.39-13.09,17.957,17.957,0,0,0-13.16-5.39,17.957,17.957,0,0,0-13.16,5.39A17.738,17.738,0,0,0,46.13-17.5,17.9,17.9,0,0,0,51.45-4.34,17.9,17.9,0,0,0,64.61.98,17.9,17.9,0,0,0,77.77-4.34ZM57.82-10.57a9.618,9.618,0,0,1-2.66-6.93,9.618,9.618,0,0,1,2.66-6.93,9.18,9.18,0,0,1,6.79-2.73,9.18,9.18,0,0,1,6.79,2.73,9.389,9.389,0,0,1,2.73,6.93,9.389,9.389,0,0,1-2.73,6.93,9.18,9.18,0,0,1-6.79,2.73A9.18,9.18,0,0,1,57.82-10.57ZM97.09-25.06c0-1.75,1.75-2.87,4.06-2.87a5.78,5.78,0,0,1,5.6,3.57l7.7-4.2a14.879,14.879,0,0,0-13.3-7.42,14.893,14.893,0,0,0-9.52,3.01,9.746,9.746,0,0,0-3.78,8.12c0,7.28,6.51,9.45,11.69,10.78,3.57.91,6.37,1.96,6.37,3.85,0,2.03-1.61,3.01-4.83,3.01-3.57,0-5.81-1.54-6.86-4.55L86.38-7.35C88.97-1.82,93.87.98,101.08.98a16.918,16.918,0,0,0,10.01-2.87,9.649,9.649,0,0,0,4.06-8.33c.07-7.49-6.58-9.94-11.69-10.99C99.89-22.12,97.09-23.17,97.09-25.06Z" transform="translate(169.954 44.677)" fill="#0062ff" opacity="0.399"/></g></svg>